<svg width="27" height="18" viewBox="0 0 27 18" fill="none" xmlns="http://www.w3.org/2000/svg">
<rect width="3" height="3" transform="matrix(-1 0 0 1 27 0)" fill="#FD533C"/>
<rect width="3" height="3" transform="matrix(-1 0 0 1 24 3)" fill="#FD533C"/>
<rect width="3" height="3" transform="matrix(-1 0 0 1 21 6)" fill="#FD533C"/>
<rect width="3" height="3" transform="matrix(-1 0 0 1 18 9)" fill="#FD533C"/>
<rect width="3" height="3" transform="matrix(-1 0 0 1 15 12)" fill="#FD533C"/>
<rect width="3" height="3" transform="matrix(-1 0 0 1 12 15)" fill="#FD533C"/>
<rect width="3" height="3" transform="matrix(-1 0 0 1 9 12)" fill="#FD533C"/>
<rect width="3" height="3" transform="matrix(-1 0 0 1 6 9)" fill="#FD533C"/>
<rect width="3" height="3" transform="matrix(-1 0 0 1 3 6)" fill="#FD533C"/>
</svg>
